<svg xmlns="http://www.w3.org/2000/svg" width="222.849" height="55.074" viewBox="0 0 222.849 55.074"><defs><style>.a{fill:#fff;}</style></defs><g transform="translate(0 -0.811)"><path class="a" d="M121.787,53.558h6.334V51.767h-4.006V50.208h3.612V48.6h-3.612V47.337h3.9V45.649h-6.223v7.908Zm7.6,0h5.945V51.61h-3.623V45.65h-2.321v7.908Zm6.855,0h6.335V51.767H138.57V50.208h3.613V48.6H138.57V47.337h3.9V45.649h-6.224v7.908Zm7.609,0h2.321v-1.93l1.2-1.322,1.583,3.252h2.858l-2.864-4.923,2.742-2.985H148.6l-2.433,2.99V45.65h-2.321v7.908Zm8.4-5.956h2.368v5.956h2.324V47.6h2.368V45.649h-7.059V47.6Zm10.316,5.956V50.347h.2a.936.936,0,0,1,.569.185,1.844,1.844,0,0,1,.422.608L165,53.558h2.624L166.5,51.265a2.982,2.982,0,0,0-.325-.489,2.407,2.407,0,0,0-.371-.416,2.265,2.265,0,0,0-.6-.293,2.721,2.721,0,0,0,.814-.312,2.151,2.151,0,0,0,.733-.774,2.29,2.29,0,0,0,.266-1.135,2.266,2.266,0,0,0-.348-1.283,1.749,1.749,0,0,0-.917-.719,5.3,5.3,0,0,0-1.645-.2h-3.87v7.908Zm0-6.313h1.021a1.349,1.349,0,0,1,.865.206.831.831,0,0,1,.084,1.047.61.61,0,0,1-.376.248,3.445,3.445,0,0,1-.615.109h-.98v-1.61Zm5.861,4.674a3.262,3.262,0,0,0,1.35,1.348,4.6,4.6,0,0,0,2.1.426,4.045,4.045,0,0,0,2.089-.494,3.248,3.248,0,0,0,1.282-1.38,5.1,5.1,0,0,0,.444-2.274,4.125,4.125,0,0,0-1.015-2.971,3.821,3.821,0,0,0-2.891-1.059,3.752,3.752,0,0,0-2.854,1.079,4.2,4.2,0,0,0-1.024,3.016,4.688,4.688,0,0,0,.516,2.31Zm2.229-4.03a1.379,1.379,0,0,1,1.128-.524,1.433,1.433,0,0,1,1.162.516,2.539,2.539,0,0,1,.428,1.631,3.046,3.046,0,0,1-.411,1.84,1.547,1.547,0,0,1-2.309-.01,3.735,3.735,0,0,1,0-3.452Zm6.241,5.669h2.183V49.216l2.814,4.342h2.189V45.649H181.9v4.376l-2.829-4.376H176.9v7.908Zm8.735,0h2.327V45.649h-2.327v7.908Zm3.9,0h2.321v-1.93l1.2-1.322,1.584,3.252H197.5l-2.865-4.923,2.743-2.985h-3.089l-2.432,2.99V45.65h-2.321v7.908Zm16.809,0h2.43L205.95,45.65h-2.534l-2.824,7.908h2.372l.365-1.3h2.636l.377,1.3Zm-2.508-3.016.82-2.844.83,2.844Zm10.682.152v.744a4,4,0,0,1-.81.4,2.365,2.365,0,0,1-.744.12,1.576,1.576,0,0,1-1.279-.552,2.877,2.877,0,0,1-.457-1.834,2.8,2.8,0,0,1,.452-1.768,1.493,1.493,0,0,1,1.219-.558,1.4,1.4,0,0,1,.841.238,1.269,1.269,0,0,1,.47.684l2.239-.42a3.341,3.341,0,0,0-.612-1.266,2.407,2.407,0,0,0-1.025-.735,5.5,5.5,0,0,0-1.864-.238,4.623,4.623,0,0,0-2.055.383,3.367,3.367,0,0,0-1.486,1.455,4.743,4.743,0,0,0-.5,2.253,4.923,4.923,0,0,0,.464,2.181,3.227,3.227,0,0,0,1.308,1.43,4.376,4.376,0,0,0,2.181.479,5.95,5.95,0,0,0,1.878-.266,7.2,7.2,0,0,0,1.821-1.008v-3.37H212.96v1.646Z" transform="translate(5.965 2.189)"/><path class="a" d="M65.248,34.683a19.831,19.831,0,0,1-13.6,4.839,19.82,19.82,0,0,1-13.682-4.888,18.436,18.436,0,0,1-6.261-14.463A18.467,18.467,0,0,1,38.052,5.756,19.792,19.792,0,0,1,51.651.819,19.537,19.537,0,0,1,65.21,5.758a18.521,18.521,0,0,1,6.3,14.413,18.494,18.494,0,0,1-6.262,14.513ZM60.854,10.559a13.6,13.6,0,0,0-9.2-3.177,13.551,13.551,0,0,0-9.8,3.62,12.139,12.139,0,0,0-3.761,9.169,12.2,12.2,0,0,0,3.677,9.266c2.442,2.332,5.715,3.521,9.887,3.521,4.139,0,7.392-1.2,9.821-3.543a12.252,12.252,0,0,0,3.659-9.244,12.052,12.052,0,0,0-4.277-9.612Zm44.488,3.117c0-3.548-1.776-5.269-5.633-5.269H82.781V18.55h17.384c3.55,0,5.177-1.586,5.177-4.875ZM105.16,38.5,97.027,25.014H82.781V38.5H76.609V1.942h24.3a10.073,10.073,0,0,1,7.875,3.2,12.3,12.3,0,0,1,2.852,8.531,11.774,11.774,0,0,1-2.332,7.6,9.466,9.466,0,0,1-5.145,3.253L112.328,38.5Zm28.6-30.09V38.5h-6.17V8.406H113.222V1.942h34.9V8.406ZM151.111,38.5V1.942h31.5V8.406H157.282v7.9h17.606v6.466H157.282V32.03h26.489V38.5Zm71.738-27.629-5.6,2.357-.281-.351c-2.916-3.65-7-5.491-12.321-5.491a13.469,13.469,0,0,0-9.74,3.6,12.092,12.092,0,0,0-3.742,9.144,12.17,12.17,0,0,0,3.7,9.266c2.453,2.33,5.788,3.522,10.073,3.522,5.148,0,9.15-1.865,12.071-5.585l.337-.428,5.26,3.423-.37.508a20.477,20.477,0,0,1-7.55,6.608,22.851,22.851,0,0,1-10.036,2.038,19.8,19.8,0,0,1-13.64-4.839,18.556,18.556,0,0,1-6.222-14.513,18.419,18.419,0,0,1,6.3-14.414,19.649,19.649,0,0,1,13.56-4.9c7.721,0,13.683,3.156,17.81,9.451l.391.6ZM6.172,8.406v7.9h17.6v6.466H6.172V38.5H0V1.942H31.5V8.406Z"/><path class="a" d="M70.576,20.129a17.6,17.6,0,0,1-5.961,13.844A18.931,18.931,0,0,1,51.61,38.587a18.924,18.924,0,0,1-13.09-4.663,17.547,17.547,0,0,1-5.961-13.8A17.574,17.574,0,0,1,38.6,6.381,18.9,18.9,0,0,1,51.609,1.669,18.652,18.652,0,0,1,64.572,6.38a17.624,17.624,0,0,1,6,13.749Zm-4.6,0A12.939,12.939,0,0,0,61.394,9.842a14.487,14.487,0,0,0-9.785-3.4,14.437,14.437,0,0,0-10.42,3.869,13.029,13.029,0,0,0-4.036,9.813,13.089,13.089,0,0,0,3.954,9.911c2.641,2.523,6.151,3.77,10.5,3.77,4.323,0,7.814-1.258,10.441-3.8a13.137,13.137,0,0,0,3.931-9.885Zm34.143-.728c4,0,6.068-1.941,6.068-5.767,0-4.09-2.226-6.161-6.525-6.161H81.848V19.4Zm10.608,18.162h-5.11L97.488,24.081H81.848V37.563H77.46V2.794h23.409a9.188,9.188,0,0,1,7.212,2.9,11.428,11.428,0,0,1,2.622,7.935,10.89,10.89,0,0,1-2.135,7.042,8.8,8.8,0,0,1-5.43,3.12l-.412.079,8,13.69ZM147.19,7.473H132.824v30.09h-4.387V7.473H114.072V2.794H147.19v4.68Zm35.648,30.09H151.96V2.794h29.716v4.68H156.349v9.68h17.6v4.681h-17.6V32.881h26.489Zm38.633-27.142L217.483,12.1q-4.65-5.658-12.876-5.652a14.354,14.354,0,0,0-10.357,3.845,12.977,12.977,0,0,0-4.017,9.788,13.052,13.052,0,0,0,3.975,9.913c2.655,2.523,6.229,3.768,10.687,3.768a15.373,15.373,0,0,0,12.6-5.714l3.787,2.464a19.411,19.411,0,0,1-7.032,6.079A21.927,21.927,0,0,1,204.6,38.54a18.9,18.9,0,0,1-13.048-4.614,17.659,17.659,0,0,1-5.919-13.844,17.534,17.534,0,0,1,6-13.748A18.763,18.763,0,0,1,204.6,1.671q10.962,0,16.865,8.752ZM30.566,7.473H5.239v9.68h17.6v4.681H5.239V37.563H.851V2.794H30.566v4.68Z" transform="translate(0.042 0.042)"/></g></svg>