<svg xmlns="http://www.w3.org/2000/svg" width="430.059" height="899.15" viewBox="0 0 430.059 899.15"><path d="M59.766,7.428C235.975,28.358,394.341,174,432.511,350.246,484.308,589.432,339.494,823.687,102,883.841c-27.291,6.926-55.6,9.825-89.064,15.547V.238H30.969Zm96.367,191.04-1.807-5.082c-.226.979-.941,2.56-.64,2.786a13.163,13.163,0,0,0,3.576,1.43V706.691c10.465-5.345,17.128-7.717,22.661-11.745,157.8-114.436,155.844-382.419-3.764-493.166C171.153,198.317,162.872,199.484,156.133,198.468Z" transform="translate(-12.938 -0.238)" fill="#fff" opacity="0.05"/></svg>